<svg xmlns="http://www.w3.org/2000/svg" x="0px" y="0px" width="100" height="100" viewBox="0,0,256,256">
<g transform="translate(-38.4,-38.4) scale(1.3,1.3)"><g fill="#ffffff" fill-rule="nonzero" stroke="none" stroke-width="1" stroke-linecap="butt" stroke-linejoin="miter" stroke-miterlimit="10" stroke-dasharray="" stroke-dashoffset="0" font-family="none" font-weight="none" font-size="none" text-anchor="none" style="mix-blend-mode: normal"><g transform="scale(5.12,5.12)"><path d="M17.72266,10c-7.162,0 -7.72266,0.56066 -7.72266,7.72266v14.55469c0,7.162 0.56066,7.72266 7.72266,7.72266h14.55469c7.162,0 7.72266,-0.56066 7.72266,-7.72266v-14.50781c0,-7.206 -0.56353,-7.76953 -7.76953,-7.76953zM17,11h16c5.565,0 6,0.435 6,6v16c0,5.565 -0.435,6 -6,6h-16c-5.565,0 -6,-0.435 -6,-6v-16c0,-5.565 0.435,-6 6,-6zM17.87695,14.87891c-1.222,0 -2.21289,0.98799 -2.21289,2.20898c0,1.221 0.98989,2.21289 2.21289,2.21289c1.219,0 2.20898,-0.99189 2.20898,-2.21289c0,-1.219 -0.98998,-2.20898 -2.20898,-2.20898zM29.44922,20.74219c-1.845,0 -3.08089,1.01366 -3.58789,1.97266h-0.05078v-1.66797h-3.63867v12.20313h3.79102v-6.03711c0,-1.591 0.30139,-3.13477 2.27539,-3.13477c1.945,0 1.97266,1.82033 1.97266,3.23633v5.93555h3.78906v-6.69336c0,-3.286 -0.71078,-5.81445 -4.55078,-5.81445zM15.97852,21.04688v12.20313h3.79297v-12.20312z"></path></g></g></g>
</svg>