<svg version="1.0" xmlns="http://www.w3.org/2000/svg"
 width="949.000000pt" height="574.000000pt" viewBox="0 0 949.000000 574.000000"
 preserveAspectRatio="xMidYMid meet">

<g transform="translate(0.000000,574.000000) scale(0.100000,-0.100000)"
fill="#ffffff" stroke="none">
<path d="M3610 5625 c-176 -24 -367 -83 -522 -161 -85 -43 -87 -43 -127 -29
-64 22 -256 63 -386 81 -106 15 -257 18 -1268 21 l-1148 4 3 -83 3 -83 150 -7
c177 -7 277 -26 362 -68 121 -60 159 -138 174 -359 16 -228 6 -4200 -10 -4270
-48 -207 -177 -277 -544 -296 l-137 -7 0 -79 0 -79 1065 0 1065 0 0 79 0 78
-132 8 c-404 21 -528 102 -558 361 -6 55 -10 458 -10 1048 l0 959 77 -7 c42
-3 92 -6 113 -6 l36 0 12 -165 c51 -672 248 -1251 578 -1696 98 -133 321 -354
444 -441 259 -184 571 -295 885 -317 309 -21 629 40 892 172 l85 43 96 -47
c388 -192 874 -225 1294 -89 51 17 146 56 211 87 l117 56 118 -55 c489 -233
1037 -230 1517 8 546 271 953 840 1144 1601 226 902 123 1934 -266 2662 -385
722 -1009 1115 -1728 1088 -160 -6 -266 -22 -410 -64 -104 -30 -253 -91 -331
-134 l-54 -31 -78 40 c-480 247 -1052 255 -1541 22 l-104 -50 -91 44 c-306
149 -664 206 -996 161z m465 -335 c44 -11 122 -40 174 -65 164 -79 287 -176
409 -320 302 -359 490 -870 569 -1550 24 -211 24 -757 0 -973 -51 -454 -150
-826 -302 -1137 -58 -119 -189 -334 -212 -348 -5 -3 -39 38 -75 91 -277 411
-431 955 -474 1675 l-6 107 -319 0 c-249 0 -319 -3 -319 -12 0 -7 5 -78 10
-158 56 -811 320 -1486 762 -1946 l78 -81 -83 -41 c-166 -82 -290 -108 -479
-99 -150 6 -257 35 -397 107 -534 274 -901 1083 -947 2088 l-7 142 23 0 c51 0
284 54 415 97 263 86 478 214 638 383 176 183 280 405 323 685 22 141 14 442
-15 578 -58 268 -192 507 -361 644 -32 26 -59 51 -59 54 -1 9 105 55 169 73
141 41 341 43 485 6z m1629 15 c334 -58 619 -283 843 -662 190 -324 316 -737
380 -1253 23 -184 26 -815 5 -1005 -132 -1194 -664 -1955 -1366 -1955 -165 0
-281 27 -433 103 l-83 40 74 77 c334 350 570 831 686 1400 126 619 102 1319
-65 1899 -82 286 -218 588 -362 806 -94 142 -157 221 -265 331 l-80 81 54 30
c189 106 404 144 612 108z m1713 4 c843 -115 1385 -1375 1247 -2899 -42 -458
-143 -840 -315 -1185 -106 -214 -189 -334 -324 -471 -165 -165 -340 -266 -534
-306 -137 -28 -329 -21 -455 16 -86 26 -266 110 -266 125 0 4 21 27 46 51 80
78 195 221 276 345 299 455 471 1046 497 1698 38 985 -232 1836 -763 2401 -36
38 -63 73 -60 78 10 16 181 96 250 117 128 39 262 49 401 30z m-5032 -74 c392
-83 633 -350 711 -790 21 -121 24 -419 5 -540 -83 -537 -400 -842 -942 -906
-103 -12 -496 -7 -547 7 l-22 6 2 1037 3 1036 22 35 c37 60 125 96 301 125
112 19 357 13 467 -10z"/>
</g>
</svg>
